<?xml version="1.0" encoding="utf-8"?>
<!-- Generator: Adobe Illustrator 25.2.3, SVG Export Plug-In . SVG Version: 6.00 Build 0)  -->
<svg version="1.1" id="Layer_1" xmlns="http://www.w3.org/2000/svg" xmlns:xlink="http://www.w3.org/1999/xlink" x="0px" y="0px"
	 viewBox="0 0 186.2 204.3" style="enable-background:new 0 0 186.2 204.3;" xml:space="preserve">
<style type="text/css">
	.st0{fill:none;}
	.st1{fill:#010101;}
</style>
<g>
	<polygon class="st0" points="41.1,131.9 41.6,132.3 47.3,116.4 23.2,93.1 5.5,111.1 8.9,114.4 8.5,114 12,110.6 12.9,111.5 
		9.4,114.8 12.7,118 12.2,117.6 19.5,110.3 20.4,111.2 13.1,118.5 16.3,121.6 15.9,121.1 19.5,117.6 20.4,118.5 16.8,122 20,125.1 
		19.5,124.7 26.5,117.6 27.4,118.5 20.4,125.5 23.2,128.3 26.8,124.6 27.7,125.4 24.1,129.1 23.7,128.7 27.4,132.3 27,131.8 
		34.3,125.1 35.1,126 27.8,132.7 30.3,135.1 33.8,131.3 34.7,132.2 31.1,135.9 30.7,135.5 34.7,139.4 34.3,138.9 	"/>
	<polygon class="st0" points="147.2,131 152.7,136.7 155.4,134.1 152.2,130.7 153.1,129.9 156.3,133.2 159.1,130.5 152,123.4 
		152.9,122.5 160,129.7 162.9,126.9 159.6,123.6 160.4,122.7 163.8,126 166.5,123.5 159.4,116.3 160.3,115.4 167.4,122.6 
		170.6,119.5 167,116 167.9,115.2 171.5,118.7 173.8,116.5 166.8,109.6 167.7,108.7 174.7,115.6 177.8,112.7 174.3,109.2 
		175.2,108.3 178.7,111.9 181.3,109.4 163.6,91.7 141,114.4 146.9,131.3 	"/>
	<polygon class="st0" points="41.1,133.7 35.2,139.8 37.9,142.5 	"/>
	<polygon class="st0" points="116.6,103.1 133.1,96.8 132.1,93.6 115.4,99.9 	"/>
	<polygon class="st0" points="63.8,101.4 22.9,195.5 70.4,104.3 	"/>
	<polygon class="st0" points="55.1,98 20,195.5 61.5,100.5 	"/>
	<polygon class="st0" points="149.8,139.5 151.8,137.5 147.6,133.2 	"/>
	<path class="st0" d="M80.5,37.9C80.5,37.9,80.5,37.9,80.5,37.9c0.3,0.3,0.5,0.6,0.7,0.8c0,0,0.1,0.1,0.1,0.1
		c0.8,0.8,1.6,1.5,2.5,2.2c0,0,0.1,0.1,0.1,0.1c0.3,0.2,0.5,0.4,0.8,0.5c0.1,0,0.1,0.1,0.2,0.1c0.3,0.2,0.6,0.4,0.9,0.5c0,0,0,0,0,0
		c0.3,0.2,0.7,0.4,1,0.5c0,0,0.1,0,0.1,0.1c0.3,0.1,0.6,0.3,0.9,0.4c0.1,0,0.2,0.1,0.3,0.1c0.3,0.1,0.5,0.2,0.8,0.3
		c0.1,0,0.2,0.1,0.3,0.1c0.3,0.1,0.6,0.2,1,0.3c0,0,0.1,0,0.1,0c0.4,0.1,0.7,0.2,1.1,0.2c0.1,0,0.2,0,0.3,0.1c0.3,0,0.5,0.1,0.8,0.1
		c0.1,0,0.2,0,0.4,0c0.3,0,0.5,0.1,0.8,0.1c0.1,0,0.2,0,0.3,0c0.4,0,0.8,0,1.1,0c0.4,0,0.7,0,1.1,0c0.1,0,0.2,0,0.3,0
		c0.2,0,0.5,0,0.7-0.1c0.1,0,0.3,0,0.4,0c0.2,0,0.5-0.1,0.7-0.1c0.1,0,0.3,0,0.4-0.1c0.2,0,0.5-0.1,0.7-0.2c0.1,0,0.2,0,0.3-0.1
		c0.7-0.2,1.4-0.4,2-0.6c0.1,0,0.2-0.1,0.2-0.1c0.3-0.1,0.5-0.2,0.7-0.3c0.1,0,0.2-0.1,0.3-0.1c0.2-0.1,0.5-0.2,0.7-0.3
		c0.1,0,0.2-0.1,0.3-0.1c0.2-0.1,0.5-0.3,0.7-0.4c0.1,0,0.1-0.1,0.2-0.1c0.6-0.4,1.2-0.8,1.8-1.2c0,0,0,0,0.1-0.1
		c0.3-0.2,0.5-0.4,0.7-0.6c0.1,0,0.1-0.1,0.2-0.1c0.2-0.2,0.4-0.4,0.6-0.6c0,0,0.1-0.1,0.1-0.1c0.2-0.2,0.4-0.4,0.7-0.7
		c0,0,0.1-0.1,0.1-0.1c0.5-0.5,1-1.1,1.4-1.7c2.3-3.2,3.7-7.1,3.7-11.4c0-10.6-8.6-19.2-19.2-19.2c-10.6,0-19.2,8.6-19.2,19.2
		c0,3.9,1.2,7.5,3.2,10.5C79.5,36.7,80,37.3,80.5,37.9z M95.1,10.6c8.2,0,14.9,6.7,14.9,14.9c0,8.2-6.7,14.9-14.9,14.9
		c-8.2,0-14.9-6.7-14.9-14.9C80.2,17.3,86.9,10.6,95.1,10.6z"/>
	<path class="st0" d="M95.1,38.2c2.5,0,4.8-0.7,6.7-1.9L84.3,18.8c-1.2,1.9-1.9,4.2-1.9,6.7C82.4,32.5,88.1,38.2,95.1,38.2z"/>
	<path class="st0" d="M107.7,25.5c0-7-5.7-12.7-12.7-12.7c-2.4,0-4.7,0.7-6.6,1.9l17.4,17.4C107.1,30.2,107.7,27.9,107.7,25.5z"/>
	<path class="st0" d="M116.6,97.2c0.9-0.3,6.6-2.1,8.3-5c0.4-0.7,0.8-1.7,1-2.7c0,0,0,0,0,0c0.2-0.9,0.3-1.9,0.3-2.9
		c0-1.6-0.1-3.1-0.4-4.4c-2-2.9-5.2-3.7-7.7-3.2c-3,0.7-3.3,3.6-2.4,4.6c0.9,1,2.4,0.6,3.2-0.1c0.8-0.7,2.3-1.4,2.5,0.5
		c0.3,1.9-0.4,5.4-3.9,6.2c-3.5,0.8-6.8-0.9-8.7-4.1c-1.9-3.1-1.8-9.6,0-13c1.9-3.4,5.1-5.7,5.1-10.4c0-4.6-3.5-6.5-5.7-7
		c-2.2-0.5-3.4,0.4-3.8-0.6c-0.4-1,1.4-2.7,0.7-4.3c-0.5-1.2-1.7-1.9-2.3-2.3c-1.2,1.6-2,3-2,3l0,0c-0.4,0.6-0.9,1.2-1.3,2
		c-1.8,2.9-5.6,9-5.7,13.4c0,4.4,5.3,6.8,6.9,7.5c1.7,0.7,1.5,1.7,0.9,2.9c-0.6,1.1-1.6,3.2-2.5,4.7c-0.9,1.5-0.4,2.1,0.7,2.6
		c1.1,0.5,3.7,1.3,6.7,3.8c3,2.5,5.9,6.2,7.4,8.1C115.1,97.5,115.6,97.6,116.6,97.2z"/>
	<path class="st0" d="M95.2,101.4c3.7,0.6,5.4,6.8,5.9,9.1c0.5,2.2,1,2.5,1.8,2.5c0.7,0,1.3,0,2.3,0c0.9,0,1.6-0.5,1.6-1.3
		s0-13,0-14.4c0-1-2-1.2-3-1.2c-0.9,0-1.9,0.8-2.4,1.8c-0.5,1-1.3,0.6-2.5-0.2c-1.9-1.5-6.9-3.7-11.9-1c-8.3,4.1-8.5,14.4-8.5,27.6
		c0,13.1,6.6,18,12.8,18c6.1,0,9-4.1,9.3-4.1c0.3,0,0.9,0.4,1.6,1.6c0.6,1.1,1.1,1.1,1.5,1.1c0.4,0,0.7,0,2.1,0
		c1.4,0,1.7-0.8,1.7-2.1c0-1.3,0-12,0-13.3c0-1.3,0.6-2.6,1.8-2.6c1.2,0,1.2-1.2,1.2-2.2c0-1-0.2-1.8-2.3-1.8
		c-2.1,0-12.1-0.1-13.9-0.1c-1.8,0-1.7,1.6-1.7,2.3c0,0.7-0.4,2.3,2.3,2.3c3.6,0,3.1,3.4,3.1,6.8c0,3.4-1.2,6.7-4.6,6.7
		c-3.4,0-4.6-4.6-4.6-7.5s0-8.5,0-17.6C88.7,102.3,91.5,100.8,95.2,101.4z"/>
	<path class="st0" d="M73.6,99.5l-16.5-6.9l-1.4,3.5l16.1,6.4C72.4,101.2,73.6,99.5,73.6,99.5z"/>
	<path class="st0" d="M74.6,97.6c0,0,2.9-4.5,5.3-7.5c2.4-3,4.9-5.1,4.9-5.1s-0.7-2.5-2.2-3.7c-1.6-1.2-1.3-1.8-0.5-1.9
		c0.8-0.2,5.1-1.6,7.1-5.6c1.9-4,1.3-8.5,0.4-10c-0.9-1.5-0.6-2.2,0.6-2.5c1.2-0.3,7.5-6.2,5.8-13.6c0,0-4.5,0.1-8.4-1.5
		c-3.9-1.6-6.3-3.5-7-4.2c-0.7-0.8-3.6,0.5-4.9,2.9c-1.3,2.4-3.2,6.5,0.8,11c0,0,0.3,0.6-2.4,2.1c-2.7,1.5-8,5.4-4.5,14.3
		c0,0,0,0.8-1.4,1.6c-1.4,0.8-5.3,3.6-6.3,7.3C60.9,84.9,59.1,95.3,74.6,97.6z M75.7,73.8c0.5-0.1,1-0.2,1.6-0.3
		c3.6-0.7,8.1-1.5,8.7-7c0.4-4.2-1.7-6.1-3.9-8.2c-1.2-1.1-2.4-2.2-3.2-3.7c-1.2-2.3-1.8-5.9,2.5-9.5c0.3-0.2,0.5-0.4,0.8-0.4
		c0.3,0,0.6,0.2,0.8,0.5c0.1,0.3,0.1,0.8-0.3,1.2c-2.7,2.3-3.4,4.7-2.1,7.3c0.6,1.2,1.7,2.1,2.8,3.2c2.4,2.1,5.1,4.6,4.5,9.7
		c-0.7,6.9-6.4,8-10.2,8.7c-0.6,0.1-1,0.2-1.5,0.3c-1.9,0.4-11.3,3-10.1,11.1c0.6,4,3.3,4.9,4.8,5.1c0.2,0,0.5,0,0.8,0
		c2,0,4-0.9,4.5-2.1c0.4-1,0.1-1.5-1.4-2.6c-1.1-0.9-2.6-2-2.1-3.9c0.5-1.7,2.1-2.8,3.9-2.8c0.1,0,0.1,0,0.2,0
		c0.8,0,3.4,0.4,4.5,3.9c0.1,0.3,0.2,0.5,0.3,1c0,0.2,0,0.4-0.1,0.6c-0.1,0.1-0.2,0.1-0.3,0.1c-0.1,0-0.4-0.1-0.5-0.5l0-0.1
		c-0.2-0.9-1-2.9-3.9-3.2l-0.1,0c-0.7,0-1.3,0.3-1.7,0.8c-0.5,0.7-0.5,1.4,1,2.7c1.3,1,3,2.3,2,4.8c-0.8,1.9-3.3,3.3-6.2,3.3
		c-0.3,0-0.7,0-1-0.1c-3.5-0.4-5.9-2.9-6.4-6.7C63,79.4,69.6,75.1,75.7,73.8z"/>
	<path class="st0" d="M110.3,49c0.8-1.4,2.1-2.7,2.3-5.6c0.2-2.3-0.8-2.7-1.6-1.9c-0.5,0.5-1.6,1.4-2.8,2.2c-1.5,0.8-3,2.1-4.1,3.4
		c0.7,0.4,1.6,1.1,2.3,2.3c1.3,2,0.8,4.5,0.8,4.5c6.9,0.4,8.6,5.8,8.7,8.9c0.1,3.1-1.4,5.8-3.6,8.4c-2.2,2.7-3.4,6.1-3.2,10.1
		c0.3,4,3.4,7.2,6.7,7.2c3.3,0,3.6-2.4,3.6-2.4c-4.2,0.9-6.3-1.5-6.3-3.9c0-2.4,2.1-4.8,6-4.9c3.3,0,5.1,1.4,5.6,1.9
		c-1-2.2-2.3-3.7-3.4-4.3c-1.6-1-3.9-1.5-3.5-3.4c0.5-2.2,1.9-4.8,1.8-8.9c-0.1-4-3.6-9.8-8-11.6C111,50.9,109.5,50.4,110.3,49z"/>
	<polygon class="st0" points="127.7,127.3 93.8,160.3 59.6,128.3 47.7,151.3 49.2,152.7 56.3,145.5 57.2,146.3 50.1,153.6 
		52.8,156.2 56.3,152.6 57.2,153.4 53.7,157 56.9,160.1 56.5,159.7 63.6,152.4 64.5,153.3 57.4,160.5 60.4,163.4 63.8,159.7 
		64.7,160.5 61.3,164.3 64.2,167 71,160 71.8,160.9 65.1,167.9 67.7,170.4 71.2,166.9 72.1,167.7 68.6,171.3 71.2,173.8 78.3,166.4 
		79.2,167.3 72.1,174.6 75,177.4 78.3,174 79.2,174.9 75.9,178.2 79.5,181.6 79,181.2 86,174 86.9,174.9 79.9,182.1 82.8,184.8 
		86,181.4 86.9,182.3 83.7,185.7 86.5,188.4 92.8,181.6 93.7,182.5 87.4,189.2 86.9,188.8 90.7,192.4 90.3,192 93.6,188.7 
		94.4,189.6 91.2,192.8 94,195.5 100.5,188.9 94.2,182.4 95.1,181.6 101.4,188 104.2,185.2 101,181.8 101.8,180.9 105.1,184.3 
		107.8,181.5 100.5,174.2 101.4,173.3 108.7,180.6 111.6,177.8 107.9,174.2 108.7,173.3 112.4,176.9 114.9,174.4 107.6,167 
		108.4,166.2 115.8,173.6 118.6,170.7 115,166.8 115.9,166 119.5,169.8 122.3,166.9 115,159.7 115.9,158.8 123.2,166 126.2,163 
		122.5,159.4 123.4,158.5 127.1,162.1 129.7,159.5 122.5,152.3 123.4,151.4 130.6,158.6 133.5,155.6 129.8,151.9 130.7,151 
		134.4,154.7 136.8,152.3 129.3,144.9 130.2,144 137.7,151.5 139.2,149.9 	"/>
	<polygon class="st0" points="117.8,104.8 164.2,195.5 124.8,102.3 	"/>
	<polygon class="st0" points="127.3,101.5 167.9,196.9 169,198.2 133.8,98.9 	"/>
	<path class="st1" d="M183.5,109.5l-19.8-19.8l-23.5,23.1l-26.7-75.9l-0.1,0c2.1-3.3,3.3-7.2,3.3-11.4c0-12-9.7-21.6-21.6-21.6
		c-12,0-21.6,9.7-21.6,21.6c0,3.8,1,7.4,2.7,10.5L76,36l-28.2,78.6L23.4,90.9L3.2,111l34,32.7L16,201.8l7.5-4L46.9,153L94,198.2
		l46.1-46.6l23.8,46.3l7.5,3.9l-21-60.5L183.5,109.5z M163.6,91.7l17.7,17.7l-2.6,2.5l0.3,0.4l-0.9,0.9l-0.4-0.4l-3,2.9l0.4,0.4
		l-0.9,0.9l-0.5-0.5l-2.3,2.2l0.5,0.5l-0.9,0.9l-0.5-0.5l-3.2,3l0.7,0.7l-0.9,0.9l-0.7-0.7l-2.7,2.6l0.4,0.4l-0.9,0.9l-0.4-0.4
		l-2.9,2.8l0.4,0.4l-0.9,0.9l-0.4-0.4l-2.8,2.7l0.3,0.4l-0.9,0.9l-0.3-0.4l-2.8,2.6l0.7,0.7l-0.9,0.9l-0.7-0.7l-2,1.9l-2.2-6.2
		l-1.3-1.3l0.6-0.6l-5.9-16.9L163.6,91.7z M133.1,96.8l-16.5,6.3l-1.2-3.1l16.7-6.3L133.1,96.8z M93.4,136.4c3.4,0,4.6-3.4,4.6-6.7
		c0-3.4,0.5-6.8-3.1-6.8c-2.6,0-2.3-1.6-2.3-2.3c0-0.7-0.1-2.3,1.7-2.3c1.8,0,11.8,0.1,13.9,0.1c2.1,0,2.3,0.8,2.3,1.8
		c0,1,0,2.2-1.2,2.2c-1.2,0-1.8,1.2-1.8,2.6c0,1.3,0,12,0,13.3c0,1.3-0.3,2.1-1.7,2.1c-1.4,0-1.7,0-2.1,0c-0.4,0-0.9,0.1-1.5-1.1
		c-0.6-1.1-1.2-1.6-1.6-1.6c-0.3,0-3.2,4.1-9.3,4.1c-6.1,0-12.8-4.9-12.8-18c0-13.1,0.3-23.5,8.5-27.6c5-2.6,10-0.4,11.9,1
		c1.1,0.8,2,1.2,2.5,0.2c0.5-1,1.5-1.8,2.4-1.8c0.9,0,3,0.2,3,1.2c0,1.5,0,13.6,0,14.4s-0.6,1.3-1.6,1.3c-0.9,0-1.6,0-2.3,0
		c-0.7,0-1.3-0.3-1.8-2.5c-0.5-2.2-2.2-8.5-5.9-9.1c-3.7-0.6-6.5,0.9-6.5,10c0,9.1,0,14.8,0,17.6S89.9,136.4,93.4,136.4z
		 M106.8,88.4c-3-2.5-5.6-3.3-6.7-3.8c-1.1-0.5-1.6-1.2-0.7-2.6c0.9-1.5,1.9-3.5,2.5-4.7c0.6-1.1,0.8-2.1-0.9-2.9
		c-1.7-0.7-7-3.1-6.9-7.5c0-4.4,3.9-10.5,5.7-13.4c0.5-0.7,0.9-1.4,1.3-2l0,0c0,0,0.7-1.3,2-3c0.6,0.3,1.8,1.1,2.3,2.3
		c0.7,1.6-1.1,3.3-0.7,4.3c0.4,1,1.5,0.1,3.8,0.6c2.2,0.5,5.7,2.4,5.7,7c0,4.6-3.3,6.9-5.1,10.4c-1.9,3.4-2,9.9,0,13
		c1.9,3.1,5.2,4.8,8.7,4.1c3.5-0.8,4.1-4.3,3.9-6.2c-0.3-1.9-1.7-1.2-2.5-0.5c-0.8,0.7-2.3,1.1-3.2,0.1c-0.9-1-0.7-3.9,2.4-4.6
		c2.5-0.6,5.7,0.2,7.7,3.2c0.3,1.3,0.4,2.8,0.4,4.4c0,1-0.1,2-0.3,2.9c0,0,0,0,0,0c-0.2,1-0.6,2-1,2.7c-1.7,2.9-7.4,4.7-8.3,5
		c-0.9,0.3-1.5,0.3-2.3-0.8C112.7,94.6,109.9,90.8,106.8,88.4z M119.7,62.7c0.1,4-1.3,6.7-1.8,8.9c-0.4,1.8,1.9,2.3,3.5,3.4
		c1.1,0.7,2.5,2.1,3.4,4.3c-0.5-0.5-2.3-1.9-5.6-1.9c-3.9,0-6,2.5-6,4.9c0,2.4,2.1,4.8,6.3,3.9c0,0-0.3,2.4-3.6,2.4
		c-3.3,0-6.4-3.2-6.7-7.2c-0.3-4,1-7.4,3.2-10.1c2.2-2.7,3.7-5.3,3.6-8.4c-0.1-3.1-1.8-8.5-8.7-8.9c0,0,0.4-2.4-0.8-4.5
		c-0.7-1.1-1.6-1.8-2.3-2.3c1.2-1.3,2.6-2.6,4.1-3.4c1.2-0.8,2.2-1.7,2.8-2.2c0.8-0.8,1.7-0.4,1.6,1.9c-0.2,2.9-1.5,4.2-2.3,5.6
		c-0.8,1.4,0.8,2,1.4,2.1C116.1,52.9,119.6,58.6,119.7,62.7z M75.9,25.5c0-10.6,8.6-19.2,19.2-19.2c10.6,0,19.2,8.6,19.2,19.2
		c0,4.2-1.4,8.2-3.7,11.4c-0.4,0.6-0.9,1.1-1.4,1.7c0,0-0.1,0.1-0.1,0.1c-0.2,0.2-0.4,0.4-0.7,0.7c0,0-0.1,0.1-0.1,0.1
		c-0.2,0.2-0.4,0.4-0.6,0.6c-0.1,0-0.1,0.1-0.2,0.1c-0.2,0.2-0.5,0.4-0.7,0.6c0,0,0,0-0.1,0.1c-0.6,0.4-1.2,0.8-1.8,1.2
		c-0.1,0-0.1,0.1-0.2,0.1c-0.2,0.1-0.5,0.3-0.7,0.4c-0.1,0-0.2,0.1-0.3,0.1c-0.2,0.1-0.5,0.2-0.7,0.3c-0.1,0-0.2,0.1-0.3,0.1
		c-0.2,0.1-0.5,0.2-0.7,0.3c-0.1,0-0.2,0.1-0.2,0.1c-0.7,0.2-1.3,0.5-2,0.6c-0.1,0-0.2,0-0.3,0.1c-0.2,0.1-0.5,0.1-0.7,0.2
		c-0.1,0-0.2,0-0.4,0.1c-0.2,0-0.5,0.1-0.7,0.1c-0.1,0-0.3,0-0.4,0c-0.2,0-0.5,0-0.7,0.1c-0.1,0-0.2,0-0.3,0c-0.4,0-0.7,0-1.1,0
		c-0.4,0-0.8,0-1.1,0c-0.1,0-0.2,0-0.3,0c-0.3,0-0.5,0-0.8-0.1c-0.1,0-0.2,0-0.4,0c-0.3,0-0.5-0.1-0.8-0.1c-0.1,0-0.2,0-0.3-0.1
		c-0.4-0.1-0.7-0.2-1.1-0.2c0,0-0.1,0-0.1,0c-0.3-0.1-0.6-0.2-1-0.3c-0.1,0-0.2-0.1-0.3-0.1c-0.3-0.1-0.5-0.2-0.8-0.3
		c-0.1,0-0.2-0.1-0.3-0.1c-0.3-0.1-0.6-0.2-0.9-0.4c0,0-0.1,0-0.1-0.1c-0.3-0.2-0.7-0.3-1-0.5c0,0,0,0,0,0c-0.3-0.2-0.6-0.3-0.9-0.5
		c-0.1,0-0.1-0.1-0.2-0.1c-0.3-0.2-0.5-0.3-0.8-0.5c0,0-0.1-0.1-0.1-0.1c-0.9-0.7-1.8-1.4-2.5-2.2c0,0-0.1-0.1-0.1-0.1
		c-0.2-0.3-0.5-0.5-0.7-0.8c0,0,0,0,0-0.1c-0.5-0.6-1-1.2-1.4-1.8C77.1,33,75.9,29.4,75.9,25.5z M61.9,81.3c1-3.7,4.9-6.5,6.3-7.3
		c1.4-0.8,1.4-1.6,1.4-1.6c-3.6-8.9,1.8-12.8,4.5-14.3c2.7-1.5,2.4-2.1,2.4-2.1c-4-4.5-2.2-8.6-0.8-11c1.3-2.4,4.2-3.6,4.9-2.9
		c0.7,0.8,3.2,2.6,7,4.2c3.9,1.6,8.4,1.5,8.4,1.5c1.7,7.4-4.6,13.3-5.8,13.6c-1.2,0.3-1.5,1-0.6,2.5c0.9,1.5,1.5,6-0.4,10
		c-1.9,4-6.3,5.4-7.1,5.6c-0.8,0.2-1.1,0.7,0.5,1.9c1.6,1.2,2.2,3.7,2.2,3.7s-2.5,2.1-4.9,5.1c-2.4,3-5.3,7.5-5.3,7.5
		C59.1,95.3,60.9,84.9,61.9,81.3z M57.1,92.5l16.5,6.9c0,0-1.2,1.7-1.8,3l-16.1-6.4L57.1,92.5z M35.2,139.8l-0.4-0.4l-4-3.9
		l-0.5-0.4h0l-2.4-2.3l0,0l-0.4-0.5l-3.7-3.6l-0.4-0.4l0,0l-2.8-2.7l0,0l-0.4-0.4l-3.2-3.1l0,0l-0.4-0.4l-3.2-3.1l0,0l-0.4-0.4
		l-3.3-3.2l0,0l-0.4-0.4l-3.5-3.4l17.8-17.9l24,23.3l-5.7,15.9l0.4,0.4l-1,1l-3.1,8.8L35.2,139.8L35.2,139.8z M55.1,98l6.4,2.6
		l-41.6,95L55.1,98z M22.9,195.5l40.9-94.2l6.6,3L22.9,195.5z M138.1,151.9l-0.9,0.9l-0.5-0.5l-2.4,2.4l0.3,0.3l-0.9,0.9l-0.3-0.3
		l-3,3l0.4,0.4l-0.9,0.9l-0.4-0.4l-2.6,2.7l0.4,0.4l-0.9,0.9l-0.4-0.4l-3,3l0.5,0.5l-0.9,0.9l-0.5-0.5l-2.9,2.9l0.4,0.4l-0.9,0.8
		l-0.3-0.4l-2.8,2.9l0.4,0.5l-0.9,0.9l-0.4-0.4l-2.4,2.5l0.4,0.4l-0.9,0.9l-0.5-0.4l-2.8,2.9l0.7,0.7l-0.9,0.9l-0.7-0.7l-2.7,2.7
		l0.9,0.9l-0.9,0.9l-0.9-0.9l-2.8,2.9l0.8,0.8l-0.9,0.9l-0.8-0.8l-6.6,6.6l-2.8-2.7l0,0l-0.4-0.4l-3.8-3.6l-0.5-0.4l0,0l-2.8-2.7
		l-0.3,0.4l-0.9-0.8l0.3-0.4l-2.9-2.7l0,0l-0.5-0.4l-3.6-3.4l-0.3,0.3l-0.9-0.9l0.2-0.2l-2.9-2.8l-0.3,0.3L71,174l0.3-0.3l-2.6-2.5
		l-0.3,0.3l-0.9-0.9l0.3-0.3l-2.7-2.5l-0.2,0.2l-0.9-0.9l0.2-0.2l-2.9-2.8l-0.2,0.2l-0.9-0.8l0.2-0.2l-3-2.9l0,0l-0.5-0.5l-3.2-3
		l-0.3,0.3l-0.9-0.9l0.3-0.3l-2.7-2.6l-0.3,0.3l-0.9-0.9l0.3-0.3l-1.4-1.4l11.9-23l34.2,32l33.9-32.9l11.5,22.6l-1.5,1.6
		L138.1,151.9z M117.8,104.8l7-2.5l39.4,93.2L117.8,104.8z M169,198.2l-1.1-1.3l-40.6-95.4l6.5-2.6L169,198.2z"/>
	<path class="st1" d="M95.1,40.4c8.2,0,14.9-6.7,14.9-14.9c0-8.2-6.7-14.9-14.9-14.9c-8.2,0-14.9,6.7-14.9,14.9
		C80.2,33.7,86.9,40.4,95.1,40.4z M95.1,12.8c7,0,12.7,5.7,12.7,12.7c0,2.4-0.7,4.7-1.9,6.6L88.5,14.7
		C90.4,13.5,92.7,12.8,95.1,12.8z M84.3,18.8l17.4,17.4c-1.9,1.2-4.2,1.9-6.7,1.9c-7,0-12.7-5.7-12.7-12.7
		C82.4,23,83.1,20.7,84.3,18.8z"/>
	<polygon class="st1" points="174.3,109.2 177.8,112.7 178.1,113.1 179,112.2 178.7,111.9 175.2,108.3 	"/>
	<polygon class="st1" points="166.8,109.6 173.8,116.5 174.3,116.9 175.2,116 174.7,115.6 167.7,108.7 	"/>
	<polygon class="st1" points="167,116 170.6,119.5 171.1,120 172,119.1 171.5,118.7 167.9,115.2 	"/>
	<polygon class="st1" points="159.4,116.3 166.5,123.5 167.2,124.1 168.1,123.3 167.4,122.6 160.3,115.4 	"/>
	<polygon class="st1" points="159.6,123.6 162.9,126.9 163.3,127.3 164.2,126.4 163.8,126 160.4,122.7 	"/>
	<polygon class="st1" points="152,123.4 159.1,130.5 159.5,130.9 160.4,130.1 160,129.7 152.9,122.5 	"/>
	<polygon class="st1" points="152.2,130.7 155.4,134.1 155.8,134.4 156.7,133.5 156.3,133.2 153.1,129.9 	"/>
	<polygon class="st1" points="146.9,131.3 146.3,131.9 147.6,133.2 151.8,137.5 152.5,138.3 153.4,137.4 152.7,136.7 147.2,131 	"/>
	<polygon class="st1" points="129.3,144.9 136.8,152.3 137.3,152.8 138.1,151.9 137.7,151.5 130.2,144 	"/>
	<polygon class="st1" points="129.8,151.9 133.5,155.6 133.9,156 134.7,155.1 134.4,154.7 130.7,151 	"/>
	<polygon class="st1" points="122.5,152.3 129.7,159.5 130.1,159.9 130.9,159 130.6,158.6 123.4,151.4 	"/>
	<polygon class="st1" points="122.5,159.4 126.2,163 126.5,163.4 127.4,162.5 127.1,162.1 123.4,158.5 	"/>
	<polygon class="st1" points="115,159.7 122.3,166.9 122.9,167.4 123.8,166.5 123.2,166 115.9,158.8 	"/>
	<polygon class="st1" points="115,166.8 118.6,170.7 118.9,171.1 119.8,170.2 119.5,169.8 115.9,166 	"/>
	<polygon class="st1" points="107.6,167 114.9,174.4 115.3,174.9 116.2,174 115.8,173.6 108.4,166.2 	"/>
	<polygon class="st1" points="107.9,174.2 111.6,177.8 112,178.2 112.9,177.3 112.4,176.9 108.7,173.3 	"/>
	<polygon class="st1" points="100.5,174.2 107.8,181.5 108.6,182.3 109.5,181.4 108.7,180.6 101.4,173.3 	"/>
	<polygon class="st1" points="101,181.8 104.2,185.2 105.1,186.1 106,185.2 105.1,184.3 101.8,180.9 	"/>
	<polygon class="st1" points="93.6,188.7 90.3,192 90.7,192.4 91.2,192.8 91.2,192.8 94.4,189.6 	"/>
	<polygon class="st1" points="93.7,182.5 92.8,181.6 86.5,188.4 86.5,188.4 86.9,188.8 87.4,189.2 	"/>
	<polygon class="st1" points="86,181.4 82.8,184.8 82.4,185.2 83.3,186.1 83.7,185.7 86.9,182.3 	"/>
	<polygon class="st1" points="86,174 79,181.2 79.5,181.6 79.9,182.1 79.9,182.1 86.9,174.9 	"/>
	<polygon class="st1" points="78.3,174 75,177.4 74.8,177.6 75.6,178.5 75.9,178.2 79.2,174.9 	"/>
	<polygon class="st1" points="78.3,166.4 71.2,173.8 71,174 71.8,174.9 72.1,174.6 79.2,167.3 	"/>
	<polygon class="st1" points="71.2,166.9 67.7,170.4 67.5,170.7 68.4,171.6 68.6,171.3 72.1,167.7 	"/>
	<polygon class="st1" points="71,160 64.2,167 64,167.2 64.9,168.1 65.1,167.9 71.8,160.9 	"/>
	<polygon class="st1" points="63.8,159.7 60.4,163.4 60.1,163.6 61,164.5 61.3,164.3 64.7,160.5 	"/>
	<polygon class="st1" points="63.6,152.4 56.5,159.7 56.9,160.1 57.4,160.5 57.4,160.5 64.5,153.3 	"/>
	<polygon class="st1" points="56.3,152.6 52.8,156.2 52.5,156.5 53.4,157.3 53.7,157 57.2,153.4 	"/>
	<polygon class="st1" points="56.3,145.5 49.2,152.7 48.9,153 49.8,153.9 50.1,153.6 57.2,146.3 	"/>
	<polygon class="st1" points="42,132.7 41.6,132.3 41.1,131.9 34.3,138.9 34.7,139.4 35.2,139.8 35.2,139.8 41.1,133.7 	"/>
	<polygon class="st1" points="34.7,132.2 33.8,131.3 30.3,135.1 30.2,135.1 30.7,135.5 31.1,135.9 	"/>
	<polygon class="st1" points="34.3,125.1 27,131.8 27.4,132.3 27.8,132.8 27.8,132.7 35.1,126 	"/>
	<polygon class="st1" points="27.7,125.4 26.8,124.6 23.2,128.3 23.2,128.3 23.7,128.7 24.1,129.1 	"/>
	<polygon class="st1" points="26.5,117.6 19.5,124.7 20,125.1 20.4,125.5 20.4,125.5 27.4,118.5 	"/>
	<polygon class="st1" points="19.5,117.6 15.9,121.1 16.3,121.6 16.7,122 16.8,122 20.4,118.5 	"/>
	<polygon class="st1" points="19.5,110.3 12.2,117.6 12.7,118 13.1,118.5 13.1,118.5 20.4,111.2 	"/>
	<polygon class="st1" points="12,110.6 8.5,114 8.9,114.4 9.3,114.9 9.4,114.8 12.9,111.5 	"/>
	<polygon class="st1" points="94.2,182.4 100.5,188.9 101.3,189.7 102.2,188.9 101.4,188 95.1,181.6 	"/>
	<path class="st1" d="M70.6,93.6c0.3,0,0.7,0.1,1,0.1c2.8,0,5.4-1.3,6.2-3.3c1-2.5-0.7-3.8-2-4.8c-1.6-1.3-1.5-2-1-2.7
		c0.4-0.5,1.1-0.8,1.7-0.8l0.1,0c2.9,0.3,3.7,2.3,3.9,3.2l0,0.1c0.2,0.4,0.4,0.5,0.5,0.5c0.1,0,0.2-0.1,0.3-0.1
		c0.1-0.1,0.2-0.4,0.1-0.6c-0.1-0.5-0.2-0.7-0.3-1c-1.1-3.5-3.7-3.9-4.5-3.9c-0.1,0-0.1,0-0.2,0c-1.8,0-3.4,1.2-3.9,2.8
		c-0.5,1.9,0.9,3,2.1,3.9c1.5,1.1,1.8,1.6,1.4,2.6c-0.5,1.2-2.5,2.1-4.5,2.1c-0.3,0-0.5,0-0.8,0c-1.5-0.2-4.2-1.1-4.8-5.1
		c-1.2-8.1,8.2-10.6,10.1-11.1c0.5-0.1,0.9-0.2,1.5-0.3c3.8-0.7,9.5-1.8,10.2-8.7c0.5-5.2-2.2-7.6-4.5-9.7c-1.1-1-2.2-2-2.8-3.2
		c-1.3-2.6-0.7-4.9,2.1-7.3c0.4-0.4,0.5-0.9,0.3-1.2c-0.1-0.3-0.4-0.5-0.8-0.5c-0.3,0-0.5,0.1-0.8,0.4c-4.2,3.6-3.7,7.1-2.5,9.5
		c0.8,1.5,2,2.6,3.2,3.7c2.2,2,4.4,3.9,3.9,8.2c-0.6,5.5-5,6.4-8.7,7c-0.6,0.1-1.1,0.2-1.6,0.3c-6,1.4-12.7,5.6-11.5,13.1
		C64.7,90.7,67.1,93.1,70.6,93.6z"/>
</g>
</svg>
